<svg xmlns="http://www.w3.org/2000/svg" viewBox="0 0 220 48" width="220" height="48" fill="none">
  <title>AI Flow</title>
  <!-- Icon mark: asymmetric rounded square (signature corner cut: 9,9,9,3) -->
  <path
    d="M9 0L39 0A9 9 0 0 1 48 9L48 45A3 3 0 0 1 45 48L9 48A9 9 0 0 1 0 39L0 9A9 9 0 0 1 9 0Z"
    fill="#1D1C19"
  />

  <!-- Flow wave lines inside mark -->
  <path
    d="M10 20C17 15 21 27 28 21S37 27 40 19"
    stroke="#F26334"
    stroke-width="2.5"
    stroke-linecap="round"
    fill="none"
  />
  <path
    d="M10 28C17 23 21 35 28 29S37 35 40 27"
    stroke="#F26334"
    stroke-width="2.5"
    stroke-linecap="round"
    fill="none"
  />

  <!-- Wordmark: AI + FLOW in white -->
  <text
    x="62"
    y="35"
    font-family="Manrope, system-ui, -apple-system, sans-serif"
    font-weight="800"
    font-size="28"
    letter-spacing="-0.04em"
    fill="#FFFFFF"
  >
    AI
  </text>
  <text
    x="108"
    y="35"
    font-family="Manrope, system-ui, -apple-system, sans-serif"
    font-weight="800"
    font-size="28"
    letter-spacing="-0.04em"
    fill="#F26334"
  >
    FLOW
  </text>
</svg>
